<svg xmlns="http://www.w3.org/2000/svg" viewBox="0 0 937.25 937.25"><defs><style>.cls-1{fill:#ed1c24;}.cls-2{fill:#fff;}</style></defs><g id="Layer_2" data-name="Layer 2"><g id="Layer_1-2" data-name="Layer 1"><circle class="cls-1" cx="468.62" cy="468.62" r="468.62"/><path class="cls-2" d="M654.36,710.19H282.89A13.1,13.1,0,0,1,269.8,697.1V187.72a13.1,13.1,0,0,1,13.09-13.09H654.36a13.1,13.1,0,0,1,13.09,13.09V425.6a13.06,13.06,0,0,1-12.56,13.08h-.42l-75.19,0,81.94,65.34a13,13,0,0,1,6.23,11.15V697.1A13.1,13.1,0,0,1,654.36,710.19ZM290.91,689.08H646.33V519.2l-97-77.33a13.09,13.09,0,0,1,6.31-24.24h.43l90.23,0V195.74H290.91ZM654.36,195.74h0Z"/><path class="cls-2" d="M424.26,815a22.37,22.37,0,0,1-15.81-6.57l-17.12-17.13a9.89,9.89,0,0,0-14,0l-17.12,17.13A22.39,22.39,0,0,1,322,792.62V689.08h21.11V792.62a1.28,1.28,0,0,0,2.18.9l17.12-17.13a31,31,0,0,1,43.83,0l17.13,17.13a1.27,1.27,0,0,0,2.17-.9V689.08h21.12V792.62A22.44,22.44,0,0,1,424.26,815Z"/><path class="cls-2" d="M333.9,632.07V595q0-11.65,3.61-19.7a34.92,34.92,0,0,1,9.79-13.05,38.47,38.47,0,0,1,14.33-7.22,66.37,66.37,0,0,1,17.48-2.22h7.45a64.28,64.28,0,0,1,19.81,2.8,38.65,38.65,0,0,1,14.45,8.16A33.4,33.4,0,0,1,429.56,577,51.39,51.39,0,0,1,432.47,595v13.74H497v23.31Zm77.6-23.31V596.18a26.57,26.57,0,0,0-1.16-7.92,17.76,17.76,0,0,0-3.5-6.41,16.12,16.12,0,0,0-5.83-4.2,20.5,20.5,0,0,0-8.15-1.51H375.61a27.86,27.86,0,0,0-9.79,1.51,16,16,0,0,0-6.4,4.31,16.47,16.47,0,0,0-3.5,6.65,31.27,31.27,0,0,0-1.05,8.27v11.88Z"/><path class="cls-2" d="M333.9,531.86V500.4q0-3.72.23-8a61.12,61.12,0,0,1,1.17-8.85,43.05,43.05,0,0,1,2.91-9,29.61,29.61,0,0,1,5.48-8.16,33.94,33.94,0,0,1,9.2-7,44.32,44.32,0,0,1,9.91-3.73,61.77,61.77,0,0,1,9.2-1.52q4.32-.34,6.88-.35h72a85.91,85.91,0,0,1,17,1.75,34.49,34.49,0,0,1,16.31,8.74,33.23,33.23,0,0,1,6.76,8.16,40.11,40.11,0,0,1,3.84,8.74,48.29,48.29,0,0,1,1.75,8.39,67.17,67.17,0,0,1,.47,7.57v34.72Zm140.29-33.79a36.7,36.7,0,0,0-.93-7.92,15,15,0,0,0-4.66-7.69,16.66,16.66,0,0,0-4.55-2.91,29.05,29.05,0,0,0-5-1.64,29.82,29.82,0,0,0-5-.69c-1.63-.08-3.15-.12-4.54-.12H377.24q-1.86,0-3.72.12a18.07,18.07,0,0,0-3.85.69,41.6,41.6,0,0,0-4,1.4,13.31,13.31,0,0,0-3.61,2.22c-2.64,2.17-4.2,4.5-4.66,7a43.89,43.89,0,0,0-.7,8.15v11.89H474.19Z"/><path class="cls-2" d="M333.9,426.77V355.92H356v47.54H405V361.75h22.13v41.71H497v23.31Z"/></g></g></svg>